<?xml version="1.0" standalone="no"?>
<!DOCTYPE svg PUBLIC "-//W3C//DTD SVG 20010904//EN"
 "http://www.w3.org/TR/2001/REC-SVG-20010904/DTD/svg10.dtd">
<svg version="1.0" xmlns="http://www.w3.org/2000/svg"
 width="500.000000pt" height="500.000000pt" viewBox="0 0 500.000000 500.000000"
 preserveAspectRatio="xMidYMid meet">

<g transform="translate(0.000000,500.000000) scale(0.100000,-0.100000)"
fill="#000000" stroke="none">
<path d="M3336 4069 c-17 -25 -12 -45 16 -60 37 -20 76 39 46 69 -18 18 -45
14 -62 -9z"/>
<path d="M1601 3956 c-8 -10 -11 -26 -7 -41 6 -22 11 -26 39 -23 29 3 32 6 32
38 0 30 -4 35 -26 38 -14 2 -31 -4 -38 -12z"/>
<path d="M2054 3925 c-12 -8 -27 -28 -34 -45 -9 -21 -19 -30 -35 -30 -13 0
-33 -9 -46 -19 l-24 -19 -3 -363 c-3 -383 0 -414 42 -424 11 -3 113 -7 226 -8
l205 -2 40 -27 c54 -38 117 -38 171 -1 35 24 48 27 128 28 l89 0 34 -65 c50
-94 61 -110 88 -120 30 -11 82 5 95 30 14 27 12 81 -5 110 -22 38 -18 50 15
50 17 0 38 9 50 22 19 21 20 33 20 390 l0 369 -25 24 c-13 14 -36 25 -50 25
-15 0 -25 6 -25 14 0 8 -12 29 -27 46 l-27 32 -95 -6 c-114 -8 -200 -27 -288
-62 -61 -25 -65 -25 -98 -10 -66 32 -121 47 -215 61 -121 19 -180 19 -206 0z
m283 -46 c41 -10 94 -27 118 -38 l45 -20 0 -95 c0 -57 4 -96 10 -96 6 0 10 38
10 94 l0 94 53 21 c28 11 79 27 112 36 77 19 247 37 258 26 4 -4 6 -155 5
-337 l-3 -329 -30 0 c-28 0 -34 7 -96 129 -61 119 -71 133 -137 187 -39 32
-74 59 -77 59 -3 0 -5 -39 -5 -87 0 -84 1 -89 51 -186 54 -106 54 -116 -1
-117 -14 0 -49 -3 -77 -6 l-53 -7 0 182 c0 114 -4 181 -10 181 -6 0 -10 -69
-10 -186 0 -172 -1 -185 -17 -180 -26 8 -264 26 -339 26 l-64 0 0 341 0 342
92 -8 c50 -4 125 -15 165 -26z m672 -415 l1 -322 -30 -4 c-36 -5 -43 -1 -64
39 l-16 32 33 3 32 3 3 330 3 330 19 -45 c17 -41 19 -75 19 -366z m-957 90
c-2 -168 -1 -316 2 -329 6 -22 10 -22 188 -30 264 -11 304 -11 395 -1 l81 8
16 -31 16 -31 -356 -2 c-196 -2 -360 0 -366 3 -16 10 -13 639 3 684 7 19 15
35 19 35 3 0 4 -138 2 -306z m644 -44 l34 -30 -49 -25 -49 -24 -7 41 c-6 34
-4 44 11 55 23 17 21 18 60 -17z m169 -310 l73 -145 -40 -23 c-23 -12 -42 -21
-43 -20 -1 2 -47 91 -102 199 l-101 196 41 20 42 20 28 -51 c16 -28 61 -116
102 -196z m105 -199 c15 -30 13 -34 -30 -59 l-39 -22 -16 30 c-15 29 -15 29
22 49 48 25 50 25 63 2z m40 -94 c0 -44 -53 -65 -80 -32 -15 18 -15 17 25 38
42 22 55 21 55 -6z"/>
<path d="M2132 3798 l2 -53 3 47 4 47 42 4 42 4 -47 1 -48 2 2 -52z"/>
<path d="M2837 3843 l42 -4 4 -47 3 -47 2 53 2 52 -47 -2 -48 -1 42 -4z"/>
<path d="M2325 3816 c39 -12 80 -28 93 -35 12 -6 22 -8 22 -3 0 10 -150 63
-172 61 -7 0 19 -11 57 -23z"/>
<path d="M2667 3816 c-37 -12 -73 -29 -80 -36 -10 -10 -7 -10 13 1 14 7 57 23
95 35 39 12 63 23 55 23 -8 0 -46 -10 -83 -23z"/>
<path d="M2134 3565 c0 -82 2 -115 3 -72 2 43 2 110 0 150 -1 40 -3 5 -3 -78z"/>
<path d="M2884 3495 c0 -104 2 -146 3 -92 2 54 2 139 0 190 -1 51 -3 7 -3 -98z"/>
<path d="M2132 3323 l-2 -43 93 2 92 2 -87 3 -87 4 -4 37 -4 37 -1 -42z"/>
<path d="M2338 3273 c12 -2 30 -2 40 0 9 3 -1 5 -23 4 -22 0 -30 -2 -17 -4z"/>
<path d="M2408 3263 c6 -2 18 -2 25 0 6 3 1 5 -13 5 -14 0 -19 -2 -12 -5z"/>
<path d="M2720 3364 c0 -9 78 -158 94 -179 27 -35 17 -7 -31 90 -41 81 -63
112 -63 89z"/>
<path d="M2840 3135 c0 -13 32 -66 36 -62 6 6 -23 67 -31 67 -3 0 -5 -2 -5 -5z"/>
<path d="M1348 2612 c-42 -9 -8 -27 38 -21 8 1 24 -23 24 -37 0 -14 -52 -52
-84 -60 -23 -5 -26 -3 -26 19 0 13 -3 39 -6 56 -6 29 -8 30 -20 14 -9 -12 -13
-49 -14 -110 0 -84 2 -94 26 -122 30 -36 66 -40 119 -15 65 31 82 100 37 150
-9 10 -16 30 -14 43 8 56 -29 95 -80 83z m71 -213 c-27 -21 -81 -34 -104 -25
-17 6 -20 52 -4 62 6 3 34 9 63 13 44 6 52 4 60 -12 8 -15 5 -23 -15 -38z"/>
<path d="M3365 2606 c-16 -7 -47 -30 -67 -51 -33 -34 -36 -39 -25 -63 6 -15
16 -30 22 -34 5 -4 6 -10 2 -14 -4 -4 10 -15 30 -24 31 -14 35 -19 21 -25 -28
-11 -23 -54 8 -65 39 -15 51 -12 85 18 24 22 30 33 25 50 -4 12 -14 22 -22 22
-8 0 -13 3 -10 8 4 6 -39 27 -96 46 -28 9 -21 44 14 76 37 34 82 47 104 29 8
-6 17 -9 21 -5 3 3 1 6 -6 6 -7 0 -10 4 -6 9 7 12 -26 31 -52 31 -10 -1 -31
-7 -48 -14z m70 -216 c3 -5 -13 -19 -36 -31 -34 -17 -43 -18 -50 -7 -6 9 -2
19 12 31 23 18 64 23 74 7z"/>
<path d="M2083 2579 c-44 -31 -63 -72 -63 -134 1 -26 29 -95 30 -72 0 7 10 0
45 -30 21 -20 44 -15 77 16 38 35 35 62 -4 32 -57 -46 -91 -15 -91 81 0 74 21
101 74 96 33 -3 36 -1 28 14 -5 10 -14 18 -19 18 -4 0 -14 2 -22 5 -7 2 -32
-9 -55 -26z"/>
<path d="M2550 2595 c0 -8 4 -15 9 -15 11 0 1 -221 -11 -237 -7 -9 1 -14 27
-19 27 -5 40 -3 46 7 4 7 4 16 0 19 -14 9 -22 235 -9 248 9 9 3 12 -25 12 -26
0 -37 -4 -37 -15z"/>
<path d="M2884 2593 c-4 -10 -11 -61 -14 -113 -5 -89 -6 -93 -19 -68 -8 15
-18 25 -24 21 -6 -3 -7 -1 -4 4 9 14 -19 92 -41 118 -9 11 -16 18 -15 16 1 -1
-7 -12 -18 -24 -24 -27 -28 -152 -4 -183 13 -17 14 -14 15 44 0 34 3 62 8 62
4 0 15 -27 26 -61 10 -33 27 -70 38 -82 19 -22 19 -22 1 8 l-18 30 34 -28 c30
-25 36 -26 43 -13 14 24 23 286 11 286 -6 0 -15 -8 -19 -17z"/>
<path d="M3055 2603 c-47 -12 -56 -37 -54 -147 2 -81 5 -103 16 -99 7 3 16 -2
19 -11 8 -21 89 -22 110 -2 18 18 11 22 -46 25 -47 3 -74 17 -49 25 8 3 28 11
44 17 17 7 34 11 38 10 5 -1 7 4 4 11 -4 14 -39 16 -74 4 -21 -7 -23 -4 -23
32 0 22 -3 53 -6 69 l-6 30 61 5 c64 4 77 10 66 27 -6 11 -63 13 -100 4z"/>
<path d="M3615 2603 c-48 -12 -56 -37 -54 -147 2 -81 5 -103 16 -99 7 3 16 -2
19 -11 8 -21 89 -22 110 -2 18 18 11 22 -46 25 -55 3 -72 16 -39 30 48 19 64
24 72 23 4 -1 7 3 7 8 0 18 -28 23 -61 11 -18 -6 -33 -10 -34 -9 -1 2 -5 33
-9 71 l-7 67 50 0 c27 0 53 5 56 10 4 6 11 7 17 4 6 -4 9 -1 6 7 -5 14 -66 22
-103 12z"/>
<path d="M1572 2576 c-6 -14 -10 -33 -8 -43 2 -10 7 -40 10 -68 10 -68 16 -86
27 -80 5 4 14 -5 20 -19 14 -30 34 -39 48 -22 16 19 93 247 86 254 -13 14 -43
-39 -70 -126 -16 -51 -32 -89 -36 -85 -4 5 -17 49 -29 98 -29 114 -33 123 -48
91z"/>
<path d="M2420 2585 c-6 -8 -14 -32 -17 -55 -5 -34 -9 -40 -29 -40 -13 0 -24
-6 -24 -12 0 -9 -4 -8 -10 2 -5 8 -10 30 -10 48 0 17 -4 32 -10 32 -19 0 -31
-41 -29 -98 3 -86 48 -123 49 -39 0 23 4 27 30 27 29 0 30 -2 30 -43 0 -31 6
-49 20 -62 20 -18 20 -17 20 118 0 76 -2 137 -4 137 -2 0 -9 -7 -16 -15z"/>
<path d="M2497 2024 c-34 -10 -10 -29 44 -35 30 -4 61 -10 70 -13 25 -11 12
-48 -26 -76 -18 -14 -32 -27 -30 -30 2 -3 -8 -5 -23 -4 -24 1 -27 5 -30 45 -2
24 -5 46 -7 48 -23 23 -45 -153 -23 -188 14 -23 38 -28 38 -8 0 7 9 13 19 13
11 0 18 -4 15 -7 -7 -12 58 -56 94 -64 17 -3 32 -3 32 2 -1 10 -89 79 -99 76
-4 -1 -13 7 -19 18 -11 18 -9 21 20 34 35 15 63 42 80 80 13 29 -3 74 -33 93
-22 14 -95 23 -122 16z"/>
<path d="M2875 1997 c-36 -14 -61 -33 -93 -69 -20 -22 -22 -30 -12 -47 6 -12
15 -19 19 -17 5 3 7 -5 6 -19 -3 -19 3 -25 26 -30 33 -7 35 -12 14 -34 -20
-23 1 -65 35 -70 32 -4 92 28 86 46 -3 8 -1 11 4 8 6 -3 10 -1 10 4 0 6 -4 11
-10 11 -5 0 -7 6 -4 14 4 10 -16 24 -65 47 -39 18 -71 39 -71 46 0 43 82 98
129 86 26 -7 27 5 4 23 -22 16 -38 16 -78 1z m65 -218 c0 -12 -55 -39 -80 -39
-27 0 -26 24 3 37 26 13 77 14 77 2z"/>
<path d="M3715 2000 c-3 -5 -4 -14 -1 -19 4 -5 2 -11 -3 -13 -6 -1 -13 -45
-17 -97 -8 -104 -7 -104 -59 13 -16 38 -35 71 -40 73 -33 11 -62 -162 -33
-201 13 -16 15 -13 17 35 3 75 14 79 35 14 10 -32 25 -59 34 -62 9 -4 21 -13
25 -20 5 -7 12 -11 18 -8 5 4 9 1 9 -5 0 -6 4 -9 9 -5 17 10 35 285 19 285 -5
0 -6 5 -3 10 3 6 4 10 1 10 -3 0 -8 -4 -11 -10z"/>
<path d="M1270 1986 c0 -8 4 -16 9 -18 5 -2 6 -55 2 -123 -4 -66 -6 -123 -4
-127 6 -11 45 -10 63 2 10 7 12 12 4 18 -15 10 -28 242 -13 242 5 0 7 5 4 10
-10 16 -65 12 -65 -4z"/>
<path d="M2044 1989 c-5 -8 -3 -10 7 -4 8 4 0 -5 -18 -21 -17 -16 -39 -51 -49
-79 -22 -65 -34 -77 -34 -37 0 18 -5 32 -11 32 -5 0 -7 5 -4 11 8 12 -13 69
-26 69 -5 0 -13 -9 -19 -20 -6 -11 -15 -18 -19 -15 -5 2 -16 -23 -26 -56 -17
-61 -14 -109 6 -109 6 0 9 9 6 20 -3 11 -2 18 2 15 5 -2 14 15 21 38 l13 42
13 -40 c7 -22 13 -53 14 -70 1 -16 4 -24 7 -17 4 10 9 7 20 -9 20 -27 23 -22
60 92 l27 84 7 -58 c3 -32 15 -76 25 -99 15 -34 19 -38 30 -24 12 17 10 63 -7
178 -11 67 -30 101 -45 77z"/>
<path d="M2255 1993 c-11 -3 -30 -14 -42 -25 -19 -18 -21 -30 -21 -108 0 -76
3 -91 23 -114 17 -20 31 -26 64 -26 37 0 71 17 71 34 0 3 -25 6 -55 6 -40 0
-55 4 -55 14 0 7 12 16 28 19 15 3 36 12 47 21 19 14 19 15 1 22 -10 4 -33 2
-49 -4 -17 -6 -32 -11 -33 -9 -2 2 -6 103 -5 125 1 7 17 12 44 12 64 0 90 9
76 26 -11 14 -54 17 -94 7z"/>
<path d="M3080 1985 c0 -8 4 -15 9 -15 12 0 3 -220 -9 -236 -13 -15 -6 -19 37
-23 31 -2 54 15 36 28 -15 9 -25 235 -11 249 9 9 3 12 -25 12 -26 0 -37 -4
-37 -15z"/>
<path d="M3317 1990 c-17 -11 -15 -30 4 -30 6 0 8 4 5 9 -8 12 61 -4 79 -19 8
-7 15 -19 15 -26 0 -8 5 -14 10 -14 6 0 10 -22 10 -48 0 -38 -5 -53 -23 -70
-26 -24 -66 -29 -85 -10 -22 22 -14 94 13 126 31 37 31 42 -1 42 -14 0 -23 -4
-19 -10 3 -5 1 -10 -5 -10 -6 0 -9 -4 -6 -8 3 -5 -6 -15 -19 -22 -27 -15 -41
-61 -31 -107 5 -21 20 -35 58 -55 l52 -28 32 22 c42 29 54 56 54 119 0 54 -18
106 -43 127 -21 18 -78 25 -100 12z"/>
<path d="M1646 1953 c-13 -21 -29 -56 -36 -78 -18 -58 -28 -63 -35 -19 -9 54
-25 104 -34 104 -3 0 -19 -14 -34 -32 -35 -39 -59 -124 -44 -152 9 -18 11 -16
29 18 11 21 17 44 14 52 -3 9 -1 12 4 9 6 -3 10 0 11 7 1 25 17 -27 24 -81 5
-35 10 -49 16 -40 6 11 9 10 15 -4 12 -33 24 -16 51 73 15 50 31 90 35 90 5 0
8 -24 8 -52 0 -53 28 -118 50 -118 13 0 13 73 -1 163 -16 107 -34 121 -73 60z"/>
<path d="M2158 1413 c-37 -9 -18 -31 30 -36 26 -3 56 -7 67 -9 25 -6 33 -48
11 -60 -9 -5 -14 -14 -10 -19 3 -5 2 -9 -3 -8 -15 3 -73 -25 -74 -36 -2 -23
-17 43 -18 80 -1 34 -3 37 -15 25 -22 -23 -30 -175 -10 -195 18 -17 34 -20 34
-5 0 18 21 11 59 -19 30 -24 101 -49 101 -36 0 9 -68 66 -97 82 -38 20 -41 29
-13 38 25 8 85 64 93 86 3 9 0 22 -6 29 -9 10 -9 11 1 6 16 -9 15 -1 -3 33
-21 41 -86 60 -147 44z"/>
<path d="M1572 1391 c-18 -11 7 -21 49 -21 39 0 69 -16 69 -38 0 -15 2 -15 10
-2 7 11 10 2 10 -32 0 -27 -4 -48 -8 -48 -5 0 -15 -11 -22 -25 -14 -25 -78
-51 -92 -37 -4 4 -8 39 -10 79 -2 58 -6 71 -17 64 -8 -5 -17 -43 -24 -101
l-10 -92 28 -26 c19 -18 26 -21 22 -10 -3 10 -2 20 4 23 5 4 7 11 3 16 -3 5
-2 8 3 7 4 -1 27 1 49 5 72 12 129 101 109 169 -4 12 -19 35 -33 51 -22 23
-34 27 -76 27 -28 0 -57 -4 -64 -9z"/>
<path d="M2831 1374 c-6 -14 -11 -63 -11 -109 0 -46 -4 -86 -9 -89 -5 -3 -24
30 -42 75 -39 93 -50 106 -71 81 -20 -22 -31 -182 -12 -182 7 0 15 23 19 58
l7 57 25 -70 c14 -38 29 -74 35 -80 6 -6 7 -4 3 6 -4 10 0 16 9 16 8 0 13 -3
11 -7 -2 -3 4 -14 15 -23 30 -25 37 -4 45 144 6 137 0 174 -24 123z"/>
<path d="M3350 1387 c-36 -17 -62 -38 -87 -70 -18 -23 -20 -31 -9 -50 27 -50
42 -67 58 -67 10 0 18 -7 18 -15 0 -8 -4 -15 -10 -15 -14 0 -13 -43 2 -58 21
-21 29 -13 13 12 -16 23 -15 25 7 39 29 19 78 20 71 1 -2 -7 -20 -18 -39 -24
-28 -10 -33 -14 -23 -26 6 -8 17 -14 24 -14 18 0 75 49 75 64 0 22 -55 65
-103 82 -32 11 -47 21 -47 34 0 20 44 67 71 75 11 4 16 11 13 17 -4 7 -2 8 5
4 20 -13 61 -17 61 -7 0 13 -34 31 -57 30 -10 0 -29 -6 -43 -12z"/>
<path d="M1935 1380 c-4 -6 -18 -15 -32 -21 -13 -5 -22 -13 -19 -18 4 -5 2
-11 -4 -13 -15 -5 -44 -151 -36 -182 5 -21 10 -25 19 -18 7 6 36 14 65 18 43
5 56 3 72 -11 20 -18 20 -17 20 36 0 30 -7 82 -15 114 -16 62 -56 117 -70 95z
m29 -131 l7 -46 -39 -11 c-52 -16 -52 -16 -52 17 0 33 17 86 39 120 l15 24 12
-29 c6 -16 14 -50 18 -75z"/>
<path d="M2470 1383 c-41 -16 -50 -40 -50 -133 0 -85 2 -92 28 -118 22 -22 34
-26 67 -24 36 3 54 15 55 34 0 4 -24 8 -52 10 -29 2 -52 8 -51 13 0 6 22 16
47 24 25 8 46 18 46 23 0 16 -29 20 -61 9 -18 -6 -34 -9 -36 -7 -2 2 -6 33
-10 70 l-6 66 51 0 c28 0 54 5 57 10 4 6 11 7 17 4 6 -4 9 -1 6 7 -5 15 -80
23 -108 12z"/>
<path d="M3020 1383 c-13 -3 -33 -11 -43 -18 -16 -11 -16 -13 -2 -19 9 -3 21
-4 26 0 5 3 9 -36 9 -90 0 -75 4 -100 17 -115 9 -11 20 -18 25 -15 4 3 8 54 8
115 l0 109 28 0 c16 0 32 8 40 20 12 19 10 20 -35 19 -27 -1 -59 -4 -73 -6z"/>
</g>
</svg>
